<?xml version="1.0" encoding="UTF-8" standalone="no"?>
<svg
   xmlns:dc="http://purl.org/dc/elements/1.1/"
   xmlns:cc="http://creativecommons.org/ns#"
   xmlns:rdf="http://www.w3.org/1999/02/22-rdf-syntax-ns#"
   xmlns:svg="http://www.w3.org/2000/svg"
   xmlns="http://www.w3.org/2000/svg"
   id="svg4430"
   height="182.87096"
   width="420.60001"
   version="1.1">
  <defs
     id="defs4432">
    <clipPath
       id="clipPath66">
      <path
         id="path68"
         d="m 30.472,731.26 186,0 0,100 -186,0 0,-100 z" />
    </clipPath>
  </defs>
  <metadata
     id="metadata4435">
    <rdf:RDF>
      <cc:Work
         rdf:about="">
        <dc:format>image/svg+xml</dc:format>
        <dc:type
           rdf:resource="http://purl.org/dc/dcmitype/StillImage" />
        <dc:title></dc:title>
      </cc:Work>
    </rdf:RDF>
  </metadata>
  <g
     id="layer1"
     transform="translate(-59.7,-810.9267)">
    <g
       id="g4696"
       transform="matrix(2,0,0,2,8.9798,-1050.927)">
      <g
         id="g70"
         transform="matrix(1.5,0,0,-1.5,46.5101,943.37085)">
        <path
           style="fill:#231f20;fill-opacity:1;fill-rule:nonzero;stroke:none"
           id="path72"
           d="m 0,0 c 0.027,0.224 0.043,0.455 0.043,0.692 0,0.128 0.001,0.278 -0.015,0.448 1.993,0.028 3.741,1.464 3.741,3.115 0,0.84 -0.548,1.475 -0.858,1.853 0.07,0.015 0.14,0.031 0.21,0.048 C 3.413,5.902 4.242,5.001 4.242,3.861 4.242,1.88 2.262,0.041 0,0 m -2.008,6.9 c -0.037,0.22 -0.121,0.42 -0.249,0.592 0.006,0.202 0.089,0.395 0.415,0.236 -0.176,-0.18 -0.04,-0.498 -0.04,-0.498 0,0 0.359,0.167 0.285,0.404 C -1.063,7.506 -1.447,6.789 -2.008,6.9 M -2.471,5.882 c -0.072,0.296 -0.223,0.601 -0.416,0.83 -0.176,0.207 -0.467,0.454 -0.859,0.454 -0.179,0 -0.479,-0.084 -0.67,-0.164 -0.071,0.129 -0.211,0.442 -0.211,0.584 0,0.145 0.246,0.292 0.715,0.292 1.031,0 1.648,-0.467 1.648,-1.249 0,-0.274 -0.109,-0.525 -0.207,-0.747 m 2.65,-13.3 c 0.12,0 0.178,-0.019 0.248,-0.045 0.297,-0.808 1.442,-2.333 1.489,-2.398 l 0.011,-0.014 0.017,0.004 c 0.28,0.045 0.998,0.153 1.598,0.153 l 0.014,0 c 0.065,0 0.139,0 0.186,-0.046 0.039,-0.039 0.058,-0.107 0.058,-0.204 0,-0.149 -0.063,-0.404 -0.139,-0.513 -0.21,0.229 -0.551,0.332 -1.097,0.332 -0.164,0 -0.358,-0.049 -0.463,-0.076 l -0.043,-0.01 -0.049,-0.013 0.315,-0.315 c 0.486,-0.486 0.906,-0.905 0.906,-1.184 0,-0.168 -0.164,-0.387 -0.315,-0.484 -0.032,0.511 -0.548,1.195 -1.051,1.578 l -0.043,0.032 -0.008,-0.18 c -0.007,-0.122 -0.018,-0.305 -0.018,-0.501 0,-0.973 -0.099,-1.121 -0.436,-1.121 -0.052,0 -0.131,0.015 -0.18,0.033 0.19,0.235 0.265,0.545 0.265,1.089 l -0.003,0.251 -0.003,0.202 c 0,0.223 0.023,0.388 0.041,0.521 l 0.01,0.075 -0.053,0.007 c -0.158,0.022 -0.451,0.063 -0.675,0.063 -0.481,0 -0.807,-0.044 -1.043,-0.267 -0.156,0.126 -0.316,0.343 -0.316,0.48 0,0.204 0.126,0.219 0.292,0.219 0.084,0 0.162,-0.012 0.27,-0.025 0.207,-0.031 0.518,-0.076 1.159,-0.076 l 0.039,0 -0.012,0.039 c -0.162,0.464 -0.608,1.14 -1.323,2.009 0.064,0.233 0.127,0.385 0.352,0.385 m -6.174,-2.394 -0.013,-0.039 0.04,0 c 0.64,0 0.952,0.045 1.159,0.076 0.108,0.013 0.186,0.025 0.27,0.025 0.165,0 0.292,-0.015 0.292,-0.219 0,-0.137 -0.16,-0.354 -0.316,-0.48 -0.236,0.223 -0.563,0.267 -1.043,0.267 -0.224,0 -0.518,-0.041 -0.675,-0.063 l -0.025,-0.003 -0.028,-0.004 0.009,-0.075 c 0.019,-0.133 0.042,-0.298 0.042,-0.521 l -0.003,-0.202 -0.003,-0.251 c 0,-0.544 0.075,-0.854 0.265,-1.089 -0.049,-0.018 -0.128,-0.033 -0.18,-0.033 -0.338,0 -0.436,0.148 -0.436,1.121 0,0.196 -0.011,0.379 -0.017,0.501 l -0.01,0.181 -0.043,-0.033 c -0.502,-0.383 -1.019,-1.067 -1.05,-1.578 -0.151,0.097 -0.315,0.316 -0.315,0.484 0,0.279 0.42,0.698 0.905,1.184 l 0.28,0.279 0.035,0.036 -0.091,0.023 c -0.105,0.027 -0.299,0.076 -0.464,0.076 -0.545,0 -0.886,-0.103 -1.096,-0.332 -0.076,0.109 -0.139,0.364 -0.139,0.513 0,0.097 0.019,0.165 0.057,0.204 0.048,0.046 0.122,0.046 0.187,0.046 l 0.014,0 c 0.6,0 1.318,-0.108 1.598,-0.153 l 0.016,-0.004 0.011,0.014 c 0.048,0.065 1.193,1.59 1.49,2.398 0.069,0.026 0.128,0.045 0.247,0.045 0.226,0 0.289,-0.152 0.353,-0.385 -0.715,-0.869 -1.161,-1.545 -1.323,-2.009 M -9.087,3.861 c 0,1.14 0.829,2.041 1.121,2.295 0.07,-0.017 0.14,-0.033 0.21,-0.048 -0.311,-0.378 -0.858,-1.013 -0.858,-1.853 0,-1.667 1.782,-3.116 3.8,-3.116 C -4.827,0.996 -4.834,0.846 -4.834,0.692 -4.834,0.445 -4.82,0.216 -4.796,0 -7.078,0.014 -9.087,1.866 -9.087,3.861 M 6.219,0.348 C 7.243,-1.271 8.044,-1.244 9.254,-1.244 8.253,-0.476 7.591,0.506 7.275,1.008 L 5.405,4 C 5.223,4.924 4.744,5.788 4.029,6.431 4.269,6.522 4.47,6.618 4.59,6.709 c -1.221,0 -2.431,0.62 -3.097,0.62 -0.428,0 -0.704,-0.256 -0.704,-0.594 0.028,-0.376 0.416,-0.76 1.133,-0.76 0.162,0 0.37,0.021 0.598,0.059 0.388,-0.541 0.701,-1.03 0.701,-1.728 0,-1.31 -1.566,-2.331 -3.147,-2.331 -0.09,0 -0.175,0.004 -0.264,0.01 -0.144,0.325 -0.62,0.871 -0.62,1.49 0,1.041 0.679,1.891 0.679,2.923 0,0.64 -0.313,1.037 -0.433,1.202 0.195,0.18 0.407,0.402 0.456,0.553 -0.112,-0.048 -0.246,-0.055 -0.441,-0.055 -0.758,0 -1.376,0.198 -1.978,0.198 -0.344,0 -0.437,-0.107 -0.437,-0.208 0,-0.037 0.006,-0.075 0.016,-0.093 -0.128,0.051 -0.248,0.083 -0.392,0.11 -0.177,0.033 -0.369,0.05 -0.572,0.05 -0.732,0 -0.992,-0.307 -0.992,-0.569 0,-0.223 0.175,-0.629 0.374,-0.938 0.285,0.143 0.628,0.24 0.784,0.24 0.388,0 0.734,-0.37 0.917,-0.808 C -3.09,6.048 -3.14,6.037 -3.404,6.037 c -0.713,0 -1.198,0.255 -1.298,0.255 -0.01,0 -0.029,-0.005 -0.029,-0.02 0,-0.1 0.203,-0.365 0.601,-0.51 C -3.606,5.57 -2.819,5.49 -2.688,5.468 -2.688,5.445 -2.821,5.197 -2.97,5.15 -3.002,5.139 -3.026,5.138 -3.063,5.146 -3.611,5.254 -3.764,5.3 -4.459,5.565 -4.481,5.572 -4.493,5.559 -4.493,5.537 c 0,-0.275 0.712,-0.882 1.35,-1.115 -0.533,-0.68 -1.198,-1.375 -1.512,-2.437 -0.089,-0.006 -0.175,-0.01 -0.264,-0.01 -1.581,0 -3.148,1.021 -3.148,2.331 0,0.698 0.314,1.187 0.702,1.728 0.228,-0.038 0.435,-0.059 0.598,-0.059 0.717,0 1.105,0.384 1.133,0.76 0,0.338 -0.275,0.594 -0.705,0.594 -0.666,0 -1.875,-0.62 -3.097,-0.62 C -9.315,6.618 -9.115,6.522 -8.875,6.431 -9.59,5.788 -10.068,4.924 -10.251,4 L -12.12,1.008 c -0.315,-0.502 -0.979,-1.484 -1.98,-2.252 1.21,0 2.012,-0.027 3.036,1.592 l 0.958,1.534 c 0.072,-0.199 0.159,-0.393 0.262,-0.583 l -1.907,-3.051 c -0.318,-0.506 -0.975,-1.48 -1.98,-2.252 1.21,0 2.012,-0.028 3.036,1.59 l 1.641,2.628 c 0.123,-0.131 0.252,-0.259 0.388,-0.381 l -2.316,-3.708 c -0.318,-0.507 -0.972,-1.478 -1.98,-2.25 1.21,0 2.013,-0.029 3.036,1.59 l 2.258,3.615 c 0.149,-0.094 0.301,-0.185 0.458,-0.271 l -2.756,-4.41 c -0.318,-0.508 -0.972,-1.477 -1.979,-2.25 1.21,0 2.012,-0.029 3.036,1.589 l 2.838,4.543 c 0.168,-0.064 0.338,-0.126 0.511,-0.181 l -3.207,-5.133 c -0.313,-0.5 -0.982,-1.486 -1.978,-2.25 1.209,0 2.011,-0.027 3.035,1.59 l 3.418,5.47 c 0.035,-0.005 0.069,-0.011 0.103,-0.018 0.093,-0.296 0.158,-0.571 0.158,-0.847 0,-1.719 -1.128,-3.237 -2.482,-4.409 0.087,-0.038 0.237,-0.051 0.377,-0.051 0.279,0 0.46,0.015 0.587,0.037 -0.314,-0.712 -0.988,-1.633 -1.328,-2.11 -0.443,0.08 -1.088,0.143 -1.51,0.143 -0.442,0 -0.492,-0.259 -0.492,-0.49 0,-0.401 0.187,-0.72 0.406,-0.898 0.082,0.205 0.247,0.479 1.063,0.479 0.016,0 0.044,-0.002 0.082,-0.004 -0.239,-0.266 -0.986,-0.87 -0.986,-1.356 0,-0.322 0.354,-0.805 0.819,-0.805 -0.028,0.104 -0.024,0.2 -0.024,0.271 0,0.394 0.349,0.855 0.644,1.177 -0.009,-0.096 -0.005,-0.086 -0.005,-0.198 0,-0.931 0.085,-1.359 0.676,-1.359 0.29,0 0.49,0.159 0.559,0.207 -0.384,0.354 -0.404,0.631 -0.404,1.153 0.001,0.136 0.001,0.269 0.003,0.453 0.002,0.119 0,0.277 -0.02,0.391 0.212,0.029 0.298,0.029 0.46,0.029 0,0 0.84,0.067 1.042,-0.37 0.228,0.209 0.559,0.504 0.559,0.829 0,0.215 -0.102,0.458 -0.534,0.458 -0.164,0 -0.679,-0.1 -1.11,-0.1 0.116,0.258 0.631,1.012 1.078,1.558 0.067,-0.212 0.173,-0.441 0.407,-0.629 0.033,0.352 0.239,1.465 0.789,2.116 0.064,-0.44 0.15,-0.891 0.15,-1.842 0,-2.314 -0.556,-4.023 -1.737,-4.349 0.154,-0.267 0.478,-0.508 0.816,-0.508 0.431,0 0.667,0.489 0.907,0.95 0.125,-0.34 0.47,-1.174 0.816,-1.174 0.346,0 0.691,0.834 0.816,1.174 0.24,-0.461 0.476,-0.95 0.908,-0.95 0.337,0 0.662,0.241 0.816,0.508 -1.181,0.326 -1.738,2.035 -1.738,4.349 0,0.951 0.086,1.402 0.15,1.842 0.55,-0.651 0.757,-1.764 0.789,-2.116 0.235,0.188 0.341,0.417 0.408,0.629 0.446,-0.546 0.962,-1.3 1.078,-1.558 -0.432,0 -0.947,0.1 -1.11,0.1 -0.432,0 -0.534,-0.243 -0.534,-0.458 0,-0.325 0.331,-0.62 0.559,-0.829 0.201,0.437 1.042,0.37 1.042,0.37 0.162,0 0.248,0 0.46,-0.029 -0.02,-0.114 -0.021,-0.272 -0.02,-0.391 10e-4,-0.184 0.002,-0.317 0.002,-0.453 0,-0.522 -0.019,-0.799 -0.403,-1.153 0.069,-0.048 0.269,-0.207 0.559,-0.207 0.591,0 0.676,0.428 0.676,1.359 0,0.112 0.003,0.102 -0.005,0.198 0.295,-0.322 0.644,-0.783 0.644,-1.177 0,-0.071 0.004,-0.167 -0.025,-0.271 0.466,0 0.82,0.483 0.82,0.805 0,0.486 -0.747,1.09 -0.987,1.356 0.039,0.002 0.067,0.004 0.082,0.004 0.817,0 0.982,-0.274 1.064,-0.479 0.218,0.178 0.406,0.497 0.406,0.898 0,0.231 -0.05,0.49 -0.492,0.49 -0.422,0 -1.067,-0.063 -1.51,-0.143 -0.341,0.477 -1.014,1.398 -1.328,2.11 0.126,-0.022 0.308,-0.037 0.586,-0.037 0.141,0 0.291,0.013 0.378,0.051 -1.354,1.172 -2.483,2.69 -2.483,4.409 0,0.276 0.066,0.551 0.159,0.847 0.033,0.007 0.068,0.013 0.103,0.018 l 3.418,-5.47 c 1.023,-1.617 1.826,-1.59 3.035,-1.59 -0.996,0.764 -1.665,1.75 -1.978,2.25 L 0.714,-1.9 c 0.174,0.055 0.344,0.117 0.512,0.181 L 4.064,-6.262 C 5.088,-7.88 5.89,-7.851 7.1,-7.851 6.093,-7.078 5.439,-6.109 5.121,-5.601 l -2.756,4.41 c 0.156,0.086 0.309,0.177 0.457,0.271 l 2.259,-3.615 c 1.024,-1.619 1.825,-1.59 3.035,-1.59 -1.007,0.772 -1.661,1.743 -1.979,2.25 l -2.316,3.708 c 0.136,0.122 0.266,0.25 0.387,0.381 L 5.85,-2.414 c 1.024,-1.618 1.826,-1.59 3.036,-1.59 -1.006,0.772 -1.662,1.746 -1.98,2.252 L 4.999,1.299 c 0.103,0.19 0.19,0.384 0.262,0.583 L 6.219,0.348 Z" />
      </g>
      <g
         id="g4646">
        <g
           id="g54"
           transform="matrix(1.5,0,0,-1.5,72.5006,992.36233)">
          <path
             style="fill:#f2cf04;fill-opacity:1;fill-rule:nonzero;stroke:none"
             id="path56"
             d="m 0,0 1.5,0 0,-20 -3.5,0 0,20 2,0 z" />
        </g>
        <g
           id="g58"
           transform="matrix(1.5,0,0,-1.5,72.5006,962.21233)">
          <path
             style="fill:#ed1c24;fill-opacity:1;fill-rule:nonzero;stroke:none"
             id="path60"
             d="m 0,0 1.5,0 0,-20.1 -3.5,0 0,20.1 2,0 z" />
        </g>
        <g
           id="g74"
           transform="matrix(1.5,0,0,-1.5,74.7506,932.36235)">
          <path
             style="fill:#231f20;fill-opacity:1;fill-rule:nonzero;stroke:none"
             id="path76"
             d="m 0,0 0,-20 -1.5,0 -2,0 0,20 3.5,0 z" />
        </g>
      </g>
      <g
         id="g4654">
        <g
           id="g78"
           transform="matrix(1.5,0,0,-1.5,91.0436,940.93785)">
          <path
             style="fill:#231f20;fill-opacity:1;fill-rule:nonzero;stroke:none"
             id="path80"
             d="m 0,0 c 0,0.534 -0.115,0.932 -0.345,1.192 -0.229,0.26 -0.608,0.39 -1.136,0.39 l -1.028,0 0,-3.096 0.87,0 c 0.573,0 0.98,0.094 1.221,0.282 C -0.14,-1.013 0,-0.603 0,0 m -0.125,3.785 c 0,0.505 -0.124,0.859 -0.372,1.062 -0.219,0.181 -0.573,0.271 -1.063,0.271 l -0.949,0 0,-2.791 1.006,0 c 0.919,0 1.378,0.486 1.378,1.458 m 1.108,-3.831 c 0,-0.828 -0.207,-1.416 -0.621,-1.762 -0.377,-0.317 -0.984,-0.475 -1.82,-0.475 l -2,0 0,8.17 2.17,0 c 0.73,0 1.267,-0.158 1.61,-0.475 C 0.664,5.096 0.836,4.572 0.836,3.842 0.836,3.329 0.749,2.938 0.576,2.666 0.395,2.358 0.075,2.132 -0.384,1.988 0.143,1.86 0.508,1.623 0.712,1.277 0.892,0.975 0.983,0.534 0.983,-0.046" />
        </g>
        <g
           id="g82"
           transform="matrix(1.5,0,0,-1.5,100.5521,944.36235)">
          <path
             style="fill:#231f20;fill-opacity:1;fill-rule:nonzero;stroke:none"
             id="path84"
             d="M 0,0 -0.892,0 -0.904,0.723 C -1.25,0.181 -1.729,-0.09 -2.339,-0.09 c -1.017,0 -1.526,0.583 -1.526,1.751 l 0,4.034 0.893,0 0,-3.638 c 0,-0.468 0.038,-0.799 0.113,-0.995 0.128,-0.324 0.392,-0.486 0.791,-0.486 0.746,0 1.119,0.554 1.119,1.661 l 0,3.458 0.904,0 0,-4.441 C -0.045,0.81 -0.03,0.392 0,0" />
        </g>
        <g
           id="g86"
           transform="matrix(1.5,0,0,-1.5,108.7391,944.36235)">
          <path
             style="fill:#231f20;fill-opacity:1;fill-rule:nonzero;stroke:none"
             id="path88"
             d="m 0,0 -0.893,0 0,3.639 c 0,0.489 -0.034,0.824 -0.101,1.006 -0.128,0.331 -0.389,0.497 -0.78,0.497 -0.385,0 -0.682,-0.189 -0.893,-0.565 -0.173,-0.325 -0.26,-0.709 -0.26,-1.153 l 0,-3.424 -0.892,0 0,4.452 c 0,0.505 -0.015,0.919 -0.046,1.243 l 0.882,0 0,-0.779 c 0.316,0.602 0.809,0.903 1.48,0.903 C -0.501,5.819 0,5.228 0,4.045 L 0,0 Z" />
        </g>
        <g
           id="g90"
           transform="matrix(1.5,0,0,-1.5,115.5191,940.17585)">
          <path
             style="fill:#231f20;fill-opacity:1;fill-rule:nonzero;stroke:none"
             id="path92"
             d="m 0,0 c 0,0.776 -0.056,1.33 -0.17,1.661 -0.158,0.475 -0.463,0.712 -0.915,0.712 -0.444,0 -0.745,-0.248 -0.904,-0.746 -0.106,-0.324 -0.158,-0.828 -0.158,-1.514 0,-0.746 0.06,-1.292 0.181,-1.638 0.158,-0.468 0.44,-0.701 0.847,-0.701 0.482,0 0.803,0.237 0.961,0.712 C -0.053,-1.205 0,-0.701 0,0 m 0.915,-2.791 -0.87,0 -0.011,0.655 C -0.29,-2.633 -0.735,-2.881 -1.3,-2.881 c -0.73,0 -1.231,0.327 -1.503,0.983 -0.173,0.437 -0.259,1.115 -0.259,2.034 0,0.866 0.101,1.521 0.305,1.966 0.271,0.618 0.749,0.926 1.435,0.926 0.572,0 1.002,-0.222 1.288,-0.666 l 0,3.017 0.904,0 0,-7.096 c 0,-0.204 0.015,-0.562 0.045,-1.074" />
        </g>
        <g
           id="g94"
           transform="matrix(1.5,0,0,-1.5,123.5021,939.36285)">
          <path
             style="fill:#231f20;fill-opacity:1;fill-rule:nonzero;stroke:none"
             id="path96"
             d="m 0,0 c 0,0.55 -0.038,0.938 -0.113,1.165 -0.135,0.451 -0.425,0.677 -0.87,0.677 -0.618,0 -0.968,-0.369 -1.051,-1.107 C -2.064,0.479 -2.079,0.234 -2.079,0 L 0,0 Z m 0.904,-0.61 -2.983,0 0,-0.384 c 0,-0.58 0.053,-0.998 0.158,-1.254 0.151,-0.369 0.445,-0.554 0.882,-0.554 0.655,0 0.998,0.418 1.028,1.254 l 0.882,0 c -0.053,-1.265 -0.69,-1.898 -1.91,-1.898 -0.791,0 -1.334,0.267 -1.628,0.802 -0.218,0.399 -0.327,1.044 -0.327,1.933 0,1.009 0.094,1.732 0.282,2.169 0.294,0.686 0.874,1.028 1.74,1.028 0.814,0 1.357,-0.301 1.628,-0.903 C 0.821,1.206 0.904,0.562 0.904,-0.35 l 0,-0.26 z" />
        </g>
        <g
           id="g98"
           transform="matrix(1.5,0,0,-1.5,131.7236,942.02235)">
          <path
             style="fill:#231f20;fill-opacity:1;fill-rule:nonzero;stroke:none"
             id="path100"
             d="m 0,0 c 0,-1.108 -0.595,-1.662 -1.786,-1.662 -1.167,0 -1.74,0.614 -1.717,1.842 l 0.893,0 c 0,-0.113 0.003,-0.219 0.011,-0.316 0.053,-0.595 0.331,-0.893 0.836,-0.893 0.573,0 0.859,0.294 0.859,0.882 0,0.316 -0.091,0.565 -0.271,0.745 -0.114,0.121 -0.366,0.287 -0.758,0.497 -0.534,0.287 -0.873,0.498 -1.016,0.633 -0.287,0.264 -0.43,0.614 -0.43,1.051 0,0.49 0.162,0.863 0.486,1.119 0.301,0.241 0.704,0.361 1.209,0.361 0.588,0 1.006,-0.137 1.254,-0.412 0.249,-0.275 0.381,-0.699 0.396,-1.271 l -0.893,0 c 0,0.708 -0.267,1.062 -0.802,1.062 -0.233,0 -0.418,-0.072 -0.554,-0.215 -0.136,-0.143 -0.203,-0.331 -0.203,-0.565 0,-0.256 0.109,-0.474 0.328,-0.655 0.113,-0.106 0.38,-0.271 0.802,-0.497 C -0.897,1.457 -0.58,1.246 -0.407,1.073 -0.136,0.787 0,0.429 0,0" />
        </g>
        <g
           id="g102"
           transform="matrix(1.5,0,0,-1.5,139.1471,935.81985)">
          <path
             style="fill:#231f20;fill-opacity:1;fill-rule:nonzero;stroke:none"
             id="path104"
             d="m 0,0 -1.593,-5.695 -1.017,0 L -4.192,0 -3.232,0 -2.068,-4.791 -0.87,0 0,0 Z" />
        </g>
        <g
           id="g106"
           transform="matrix(1.5,0,0,-1.5,144.7406,939.36285)">
          <path
             style="fill:#231f20;fill-opacity:1;fill-rule:nonzero;stroke:none"
             id="path108"
             d="M 0,0 C 0,0.55 -0.038,0.938 -0.113,1.165 -0.249,1.616 -0.538,1.842 -0.983,1.842 -1.6,1.842 -1.951,1.473 -2.034,0.735 -2.064,0.479 -2.079,0.234 -2.079,0 L 0,0 Z m 0.904,-0.61 -2.983,0 0,-0.384 c 0,-0.58 0.053,-0.998 0.158,-1.254 0.151,-0.369 0.445,-0.554 0.881,-0.554 0.656,0 0.999,0.418 1.028,1.254 l 0.882,0 c -0.052,-1.265 -0.689,-1.898 -1.91,-1.898 -0.79,0 -1.333,0.267 -1.627,0.802 -0.218,0.399 -0.327,1.044 -0.327,1.933 0,1.009 0.094,1.732 0.282,2.169 0.294,0.686 0.874,1.028 1.74,1.028 0.814,0 1.356,-0.301 1.627,-0.903 C 0.821,1.206 0.904,0.562 0.904,-0.35 l 0,-0.26 z" />
        </g>
        <g
           id="g110"
           transform="matrix(1.5,0,0,-1.5,151.7921,936.93885)">
          <path
             style="fill:#231f20;fill-opacity:1;fill-rule:nonzero;stroke:none"
             id="path112"
             d="m 0,0 c -0.09,0.015 -0.154,0.023 -0.192,0.023 -0.43,0 -0.752,-0.132 -0.966,-0.395 -0.215,-0.264 -0.322,-0.615 -0.322,-1.052 l 0,-3.525 -0.904,0 0,4.656 c 0,0.384 -0.011,0.73 -0.035,1.039 l 0.882,0 0,-0.746 C -1.228,0.573 -0.746,0.859 -0.09,0.859 -0.03,0.859 0,0.573 0,0" />
        </g>
        <g
           id="g114"
           transform="matrix(1.5,0,0,-1.5,163.3511,935.81985)">
          <path
             style="fill:#231f20;fill-opacity:1;fill-rule:nonzero;stroke:none"
             id="path116"
             d="m 0,0 -1.423,-5.695 -1.074,0 -1.107,4.712 -1.085,-4.712 -1.073,0 L -7.198,0 -6.237,0 -5.186,-4.847 -4.079,0 -3.039,0 -1.909,-4.847 -0.87,0 0,0 Z" />
        </g>
        <g
           id="g118"
           transform="matrix(1.5,0,0,-1.5,168.7091,941.05635)">
          <path
             style="fill:#231f20;fill-opacity:1;fill-rule:nonzero;stroke:none"
             id="path120"
             d="m 0,0 0,0.677 -0.227,0 c -1.19,0 -1.785,-0.406 -1.785,-1.22 0,-0.731 0.278,-1.096 0.836,-1.096 0.422,0 0.734,0.181 0.938,0.542 C -0.079,-0.81 0,-0.445 0,0 m 0.937,-2.204 -0.87,0 -0.011,0.746 c -0.384,-0.558 -0.893,-0.836 -1.526,-0.836 -0.481,0 -0.855,0.158 -1.118,0.474 -0.234,0.302 -0.351,0.701 -0.351,1.198 0,0.806 0.31,1.349 0.927,1.627 C -1.605,1.193 -0.935,1.292 0,1.299 L 0,1.547 C 0,2.015 -0.038,2.338 -0.114,2.52 -0.234,2.821 -0.491,2.971 -0.882,2.971 -1.154,2.971 -1.379,2.896 -1.56,2.745 -1.741,2.595 -1.831,2.384 -1.831,2.112 l 0,-0.056 -0.893,0 0,0.056 c 0,0.52 0.189,0.909 0.565,1.164 0.324,0.227 0.761,0.339 1.311,0.339 0.655,0 1.111,-0.158 1.367,-0.474 C 0.76,2.855 0.881,2.38 0.881,1.717 l 0,-2.102 c 0,-0.685 0.019,-1.292 0.056,-1.819" />
        </g>
        <g
           id="g122"
           transform="matrix(1.5,0,0,-1.5,173.8601,944.36235)">
          <path
             style="fill:#231f20;fill-opacity:1;fill-rule:nonzero;stroke:none"
             id="path124"
             d="m 0,0 -0.892,0 0,8.17 0.446,0 L 0,8.17 0,0 Z" />
        </g>
        <g
           id="g126"
           transform="matrix(1.5,0,0,-1.5,179.6921,944.36235)">
          <path
             style="fill:#231f20;fill-opacity:1;fill-rule:nonzero;stroke:none"
             id="path128"
             d="m 0,0 c -0.279,-0.03 -0.497,-0.045 -0.655,-0.045 -0.513,0 -0.864,0.109 -1.051,0.328 -0.158,0.196 -0.237,0.553 -0.237,1.073 l 0,3.684 -0.848,0 0,0.655 0.848,0 0,1.051 0.892,0.396 0,-1.447 1.017,0 0,-0.655 -1.017,0 0,-3.582 c 0,-0.317 0.045,-0.529 0.136,-0.639 0.09,-0.109 0.26,-0.164 0.508,-0.164 0.046,0 0.18,0.015 0.407,0.046 L 0,0 Z" />
        </g>
        <g
           id="g130"
           transform="matrix(1.5,0,0,-1.5,187.1666,944.36235)">
          <path
             style="fill:#231f20;fill-opacity:1;fill-rule:nonzero;stroke:none"
             id="path132"
             d="M 0,0 -0.892,0 -0.904,0.723 C -1.251,0.181 -1.729,-0.09 -2.339,-0.09 c -1.017,0 -1.526,0.583 -1.526,1.751 l 0,4.034 0.894,0 0,-3.638 c 0,-0.468 0.037,-0.799 0.112,-0.995 0.128,-0.324 0.392,-0.486 0.791,-0.486 0.746,0 1.119,0.554 1.119,1.661 l 0,3.458 0.903,0 0,-4.441 C -0.046,0.81 -0.03,0.392 0,0" />
        </g>
        <g
           id="g134"
           transform="matrix(1.5,0,0,-1.5,195.3536,944.36235)">
          <path
             style="fill:#231f20;fill-opacity:1;fill-rule:nonzero;stroke:none"
             id="path136"
             d="m 0,0 -0.892,0 0,3.639 c 0,0.489 -0.034,0.824 -0.103,1.006 -0.128,0.331 -0.387,0.497 -0.779,0.497 -0.384,0 -0.682,-0.189 -0.893,-0.565 C -2.84,4.252 -2.926,3.868 -2.926,3.424 l 0,-3.424 -0.893,0 0,4.452 c 0,0.505 -0.016,0.919 -0.046,1.243 l 0.882,0 0,-0.779 c 0.316,0.602 0.81,0.903 1.48,0.903 C -0.501,5.819 0,5.228 0,4.045 L 0,0 Z" />
        </g>
        <g
           id="g138"
           transform="matrix(1.5,0,0,-1.5,202.1336,939.82035)">
          <path
             style="fill:#231f20;fill-opacity:1;fill-rule:nonzero;stroke:none"
             id="path140"
             d="m 0,0 c 0,0.641 -0.053,1.115 -0.158,1.424 -0.166,0.467 -0.475,0.701 -0.927,0.701 -0.467,0 -0.775,-0.264 -0.927,-0.791 -0.09,-0.317 -0.135,-0.84 -0.135,-1.571 0,-0.655 0.045,-1.123 0.135,-1.401 0.144,-0.467 0.434,-0.701 0.87,-0.701 0.513,0 0.852,0.283 1.018,0.848 C -0.041,-1.197 0,-0.7 0,0 M 0.927,2.667 C 0.927,2.584 0.921,2.435 0.91,2.221 0.898,2.006 0.892,1.839 0.892,1.718 l 0,-4.983 c 0,-0.693 -0.162,-1.198 -0.485,-1.514 -0.324,-0.317 -0.84,-0.475 -1.549,-0.475 -1.175,0 -1.769,0.55 -1.785,1.65 l 0.949,0 c 0,-0.694 0.294,-1.04 0.882,-1.04 0.459,0 0.765,0.166 0.915,0.497 0.106,0.219 0.158,0.58 0.158,1.085 l 0,0.768 c -0.316,-0.444 -0.756,-0.666 -1.322,-0.666 -0.708,0 -1.194,0.297 -1.458,0.892 -0.173,0.392 -0.26,1.002 -0.26,1.831 0,0.919 0.095,1.605 0.284,2.057 0.27,0.648 0.753,0.971 1.446,0.971 0.633,0 1.088,-0.263 1.367,-0.791 l 0,0.667 0.893,0 z" />
        </g>
        <g
           id="g142"
           transform="matrix(1.5,0,0,-1.5,210.7106,942.02235)">
          <path
             style="fill:#231f20;fill-opacity:1;fill-rule:nonzero;stroke:none"
             id="path144"
             d="m 0,0 c 0,-1.108 -0.595,-1.662 -1.786,-1.662 -1.167,0 -1.74,0.614 -1.717,1.842 l 0.892,0 c 0,-0.113 0.004,-0.219 0.012,-0.316 0.053,-0.595 0.331,-0.893 0.836,-0.893 0.572,0 0.858,0.294 0.858,0.882 0,0.316 -0.089,0.565 -0.27,0.745 -0.113,0.121 -0.365,0.287 -0.758,0.497 -0.534,0.287 -0.873,0.498 -1.017,0.633 -0.286,0.264 -0.429,0.614 -0.429,1.051 0,0.49 0.162,0.863 0.486,1.119 0.301,0.241 0.704,0.361 1.209,0.361 0.588,0 1.006,-0.137 1.254,-0.412 0.249,-0.275 0.381,-0.699 0.395,-1.271 l -0.892,0 c 0,0.708 -0.268,1.062 -0.802,1.062 -0.233,0 -0.418,-0.072 -0.554,-0.215 -0.135,-0.143 -0.204,-0.331 -0.204,-0.565 0,-0.256 0.11,-0.474 0.328,-0.655 C -2.045,2.097 -1.778,1.932 -1.356,1.706 -0.897,1.457 -0.58,1.246 -0.407,1.073 -0.136,0.787 0,0.429 0,0" />
        </g>
        <g
           id="g146"
           transform="matrix(1.5,0,0,-1.5,216.6086,941.05635)">
          <path
             style="fill:#231f20;fill-opacity:1;fill-rule:nonzero;stroke:none"
             id="path148"
             d="m 0,0 0,0.677 -0.226,0 c -1.19,0 -1.785,-0.406 -1.785,-1.22 0,-0.731 0.279,-1.096 0.836,-1.096 0.422,0 0.735,0.181 0.938,0.542 C -0.079,-0.81 0,-0.445 0,0 m 0.938,-2.204 -0.87,0 -0.011,0.746 c -0.385,-0.558 -0.893,-0.836 -1.525,-0.836 -0.483,0 -0.856,0.158 -1.12,0.474 -0.233,0.302 -0.35,0.701 -0.35,1.198 0,0.806 0.309,1.349 0.927,1.627 C -1.604,1.193 -0.934,1.292 0,1.299 L 0,1.547 C 0,2.015 -0.038,2.338 -0.113,2.52 -0.233,2.821 -0.49,2.971 -0.882,2.971 -1.152,2.971 -1.379,2.896 -1.559,2.745 -1.74,2.595 -1.831,2.384 -1.831,2.112 l 0,-0.056 -0.892,0 0,0.056 c 0,0.52 0.188,0.909 0.565,1.164 0.324,0.227 0.761,0.339 1.311,0.339 0.655,0 1.111,-0.158 1.367,-0.474 C 0.761,2.855 0.881,2.38 0.881,1.717 l 0,-2.102 c 0,-0.685 0.02,-1.292 0.057,-1.819" />
        </g>
        <g
           id="g150"
           transform="matrix(1.5,0,0,-1.5,229.8296,944.36235)">
          <path
             style="fill:#231f20;fill-opacity:1;fill-rule:nonzero;stroke:none"
             id="path152"
             d="m 0,0 -0.893,0 0,3.831 c 0,0.414 -0.037,0.708 -0.112,0.881 -0.113,0.279 -0.34,0.418 -0.679,0.418 -0.67,0 -1.005,-0.516 -1.005,-1.548 l 0,-3.582 -0.893,0 0,3.876 c 0,0.399 -0.03,0.678 -0.09,0.836 C -3.778,4.991 -4.007,5.13 -4.362,5.13 -4.7,5.13 -4.96,4.964 -5.141,4.633 -5.299,4.339 -5.378,3.959 -5.378,3.492 l 0,-3.492 -0.894,0 0,4.712 c 0,0.339 -0.014,0.667 -0.045,0.983 l 0.893,0 0,-0.746 c 0.302,0.58 0.75,0.87 1.345,0.87 0.648,0 1.07,-0.29 1.265,-0.87 0.332,0.58 0.803,0.87 1.413,0.87 0.52,0 0.889,-0.169 1.108,-0.508 C -0.098,5.017 0,4.539 0,3.876 L 0,0 Z" />
        </g>
        <g
           id="g154"
           transform="matrix(1.5,0,0,-1.5,235.6601,944.36235)">
          <path
             style="fill:#231f20;fill-opacity:1;fill-rule:nonzero;stroke:none"
             id="path156"
             d="m 0,0 c -0.278,-0.03 -0.497,-0.045 -0.655,-0.045 -0.513,0 -0.862,0.109 -1.051,0.328 -0.158,0.196 -0.237,0.553 -0.237,1.073 l 0,3.684 -0.848,0 0,0.655 0.848,0 0,1.051 0.893,0.396 0,-1.447 1.016,0 0,-0.655 -1.016,0 0,-3.582 c 0,-0.317 0.045,-0.529 0.135,-0.639 0.09,-0.109 0.26,-0.164 0.508,-0.164 0.046,0 0.182,0.015 0.407,0.046 L 0,0 Z" />
        </g>
      </g>
    </g>
  </g>
</svg>
